<svg aria-hidden="true" style="position: absolute; width: 0; height: 0; overflow: hidden;" version="1.1" xmlns="http://www.w3.org/2000/svg" xmlns:xlink="http://www.w3.org/1999/xlink">
<defs>
<symbol id="icon-time" viewBox="0 0 32 32">
<path fill="#606060" style="fill: var(--color1, #606060)" d="M16 0c-8.816 0-16 7.184-16 16s7.184 16 16 16c8.816 0 16-7.184 16-16s-7.184-16-16-16zM22.96 21.712c-0.224 0.384-0.624 0.592-1.040 0.592-0.208 0-0.416-0.048-0.608-0.176l-4.96-2.96c-1.232-0.736-2.144-2.352-2.144-3.776v-6.56c0-0.656 0.544-1.2 1.2-1.2s1.2 0.544 1.2 1.2v6.56c0 0.576 0.48 1.424 0.976 1.712l4.96 2.96c0.576 0.336 0.768 1.072 0.416 1.648z"></path>
</symbol>
<symbol id="icon-phone" viewBox="0 0 32 32">
<path fill="#606060" style="fill: var(--color1, #606060)" d="M14.481 20.721l-2.96 2.96c-0.624 0.624-1.616 0.624-2.256 0.016-0.176-0.176-0.352-0.336-0.528-0.512-1.648-1.664-3.136-3.408-4.464-5.232-1.312-1.824-2.368-3.648-3.136-5.456-0.752-1.824-1.136-3.568-1.136-5.232 0-1.088 0.192-2.128 0.576-3.088 0.384-0.976 0.992-1.872 1.84-2.672 1.024-1.008 2.144-1.504 3.328-1.504 0.448 0 0.896 0.096 1.296 0.288 0.416 0.192 0.784 0.48 1.072 0.896l3.712 5.232c0.288 0.4 0.496 0.768 0.64 1.12 0.144 0.336 0.224 0.672 0.224 0.976 0 0.384-0.112 0.768-0.336 1.136-0.208 0.368-0.512 0.752-0.896 1.136l-1.216 1.264c-0.176 0.176-0.256 0.384-0.256 0.64 0 0.128 0.016 0.24 0.048 0.368 0.048 0.128 0.096 0.224 0.128 0.32 0.288 0.528 0.784 1.216 1.488 2.048 0.72 0.832 1.488 1.68 2.32 2.528 0.16 0.16 0.336 0.32 0.496 0.48 0.64 0.624 0.656 1.648 0.016 2.288z"></path>
<path fill="#606060" style="fill: var(--color1, #606060)" d="M31.953 26.128c0 0.448-0.080 0.912-0.24 1.36-0.048 0.128-0.096 0.256-0.16 0.384-0.272 0.576-0.624 1.12-1.088 1.632-0.784 0.864-1.648 1.488-2.624 1.888-0.016 0-0.032 0.016-0.048 0.016-0.944 0.384-1.968 0.592-3.072 0.592-1.632 0-3.376-0.384-5.216-1.168s-3.68-1.84-5.504-3.168c-0.624-0.464-1.248-0.928-1.84-1.424l5.232-5.232c0.448 0.336 0.848 0.592 1.184 0.768 0.080 0.032 0.176 0.080 0.288 0.128 0.128 0.048 0.256 0.064 0.4 0.064 0.272 0 0.48-0.096 0.656-0.272l1.216-1.2c0.4-0.4 0.784-0.704 1.152-0.896 0.368-0.224 0.736-0.336 1.136-0.336 0.304 0 0.624 0.064 0.976 0.208s0.72 0.352 1.12 0.624l5.296 3.76c0.416 0.288 0.704 0.624 0.88 1.024 0.16 0.4 0.256 0.8 0.256 1.248z"></path>
</symbol>
<symbol id="icon-mail" viewBox="0 0 32 32">
<path fill="#606060" style="fill: var(--color1, #606060)" d="M30.879 16.369h-5.568c-1.568 0-2.96 0.864-3.664 2.272l-1.344 2.656c-0.32 0.64-0.96 1.040-1.664 1.040h-5.248c-0.496 0-1.2-0.112-1.664-1.040l-1.344-2.64c-0.704-1.392-2.112-2.272-3.664-2.272h-5.6c-0.624 0-1.12 0.496-1.12 1.12v5.216c0 5.808 3.488 9.28 9.312 9.28h13.408c5.488 0 8.864-3.008 9.28-8.352v-6.16c0-0.608-0.496-1.12-1.12-1.12z"></path>
<path fill="#606060" style="fill: var(--color1, #606060)" d="M31.999 9.296v4.864c-0.352-0.128-0.736-0.192-1.12-0.192h-5.568c-2.48 0-4.704 1.376-5.808 3.584l-1.2 2.368h-4.576l-1.2-2.352c-1.104-2.224-3.328-3.6-5.808-3.6h-5.6c-0.384 0-0.768 0.064-1.12 0.192v-4.864c0-5.824 3.472-9.296 9.296-9.296h13.408c5.824 0 9.296 3.472 9.296 9.296z"></path>
</symbol>
<symbol id="icon-place" viewBox="0 0 28 32">
<path fill="#606060" style="fill: var(--color1, #606060)" d="M27.317 10.459c-1.639-7.212-7.93-10.459-13.456-10.459 0 0 0 0-0.016 0-5.51 0-11.817 3.231-13.456 10.443-1.826 8.055 3.106 14.876 7.571 19.169 1.655 1.592 3.778 2.388 5.9 2.388s4.246-0.796 5.885-2.388c4.464-4.293 9.397-11.099 7.571-19.153zM13.861 18.279c-2.716 0-4.917-2.201-4.917-4.917s2.201-4.917 4.917-4.917c2.716 0 4.917 2.201 4.917 4.917s-2.201 4.917-4.917 4.917z"></path>
</symbol>
</defs>
</svg>
