<svg aria-hidden="true" style="position: absolute; width: 0; height: 0; overflow: hidden;" version="1.1" xmlns="http://www.w3.org/2000/svg" xmlns:xlink="http://www.w3.org/1999/xlink">
<defs>
<symbol id="icon-whatsapp-1" viewBox="0 0 32 32">
<path fill="#fff" style="fill: var(--color1, #fff)" d="M2.133 0h27.733c1.178 0 2.133 0.955 2.133 2.133v27.733c0 1.178-0.955 2.133-2.133 2.133h-27.733c-1.178 0-2.133-0.955-2.133-2.133v-27.733c0-1.178 0.955-2.133 2.133-2.133z"></path>
<path fill="#505050" style="fill: var(--color2, #505050)" d="M6.4 25.602l0.768-2.288c0.256-0.736 0.464-1.488 0.752-2.208 0.079-0.154 0.12-0.324 0.12-0.496s-0.041-0.343-0.12-0.496c-0.91-1.679-1.281-3.598-1.063-5.496s1.013-3.682 2.279-5.112c0.919-1.048 2.066-1.871 3.353-2.406s2.68-0.768 4.071-0.682c2.109 0.070 4.125 0.88 5.696 2.288 1.485 1.293 2.522 3.024 2.96 4.944 0.366 1.553 0.322 3.174-0.128 4.704-0.55 1.923-1.72 3.611-3.328 4.8-1.065 0.829-2.3 1.413-3.616 1.709s-2.683 0.297-4 0.003c-0.833-0.168-1.637-0.459-2.384-0.864-0.058-0.027-0.12-0.041-0.184-0.041s-0.126 0.014-0.184 0.041l-4.288 1.344-0.704 0.256zM8.832 23.186h0.144l2.688-0.848c0.093-0.032 0.195-0.032 0.288 0 0.384 0.192 0.752 0.432 1.152 0.592 1.594 0.7 3.383 0.819 5.056 0.336 0.984-0.263 1.905-0.719 2.71-1.343s1.477-1.402 1.978-2.289c0.993-1.728 1.286-3.771 0.818-5.708s-1.659-3.622-3.33-4.708c-1.513-0.982-3.321-1.407-5.113-1.203s-3.458 1.025-4.711 2.323c-1.026 1.048-1.726 2.37-2.016 3.808-0.228 0.986-0.253 2.007-0.074 3.003s0.558 1.945 1.114 2.789c0.090 0.15 0.138 0.321 0.138 0.496s-0.048 0.346-0.138 0.496c-0.208 0.704-0.432 1.472-0.704 2.256z"></path>
<path fill="#505050" style="fill: var(--color2, #505050)" d="M20.896 18.45c-0.010 0.341-0.116 0.672-0.305 0.955s-0.455 0.507-0.767 0.645c-0.323 0.177-0.681 0.281-1.048 0.306s-0.736-0.030-1.080-0.162c-0.659-0.239-1.305-0.511-1.936-0.816-0.815-0.432-1.543-1.013-2.144-1.712-0.683-0.751-1.268-1.584-1.744-2.48-0.357-0.621-0.524-1.333-0.48-2.048 0.033-0.369 0.144-0.727 0.326-1.050s0.431-0.603 0.73-0.822c0.138-0.093 0.298-0.148 0.464-0.16 0.202-0.016 0.406-0.016 0.608 0 0.074 0.009 0.144 0.040 0.2 0.088s0.098 0.112 0.12 0.184c0.16 0.368 0.288 0.736 0.432 1.12s0.176 0.512 0.288 0.752c0.098 0.132 0.146 0.295 0.134 0.46s-0.082 0.319-0.198 0.436c-0.154 0.201-0.325 0.389-0.512 0.56-0.068 0.054-0.114 0.131-0.129 0.217s0.003 0.174 0.049 0.247c0.433 0.787 1.008 1.486 1.696 2.064 0.493 0.37 1.030 0.676 1.6 0.912 0.059 0.054 0.136 0.084 0.216 0.084s0.157-0.030 0.216-0.084l0.8-0.912c0.176-0.192 0.256-0.24 0.48-0.128l1.968 1.024c0.027 0.049 0.042 0.103 0.045 0.158s-0.007 0.111-0.029 0.162z"></path>
</symbol>
<symbol id="icon-vk-1" viewBox="0 0 32 32">
<path fill="#fff" style="fill: var(--color1, #fff)" d="M2.133 0h27.733c1.178 0 2.133 0.955 2.133 2.133v27.733c0 1.178-0.955 2.133-2.133 2.133h-27.733c-1.178 0-2.133-0.955-2.133-2.133v-27.733c0-1.178 0.955-2.133 2.133-2.133z"></path>
<path fill="#505050" style="fill: var(--color2, #505050)" d="M14.51 17.892v-6.692h2.559v3.707c2.047-0.247 3.341-2.574 3.732-3.707h2.666c-0.32 2.368-2.435 4.187-3.519 4.736 1.813 0.566 4.052 3.295 4.052 4.839h-2.772c-1.024-2.636-3.199-3.432-4.159-3.501v3.501c-6.025 0.412-9.223-4.427-9.063-9.575h2.666c0.16 4.839 2.719 6.281 3.839 6.692z"></path>
</symbol>
<symbol id="icon-viber-1" viewBox="0 0 32 32">
<path fill="#fff" style="fill: var(--color1, #fff)" d="M2.133 0h27.733c1.178 0 2.133 0.955 2.133 2.133v27.733c0 1.178-0.955 2.133-2.133 2.133h-27.733c-1.178 0-2.133-0.955-2.133-2.133v-27.733c0-1.178 0.955-2.133 2.133-2.133z"></path>
<path fill="#505050" style="fill: var(--color2, #505050)" d="M19.429 14.857c-0.074-1.451-0.836-2.212-2.286-2.286l2.286 2.286z"></path>
<path fill="#505050" style="fill: var(--color2, #505050)" d="M21.713 14.857c0.029-1.259-0.363-2.311-1.175-3.156-0.816-0.848-1.945-1.315-3.395-1.416z"></path>
<path fill="#505050" style="fill: var(--color2, #505050)" d="M24.819 14.718c0.166-2.113-0.563-3.855-2.189-5.225s-3.728-2.176-6.306-2.42z"></path>
<path fill="#505050" style="fill: var(--color2, #505050)" d="M17.623 19.617c0 0 0.566 0.048 0.87-0.327l0.594-0.747c0.286-0.37 0.977-0.607 1.654-0.23 0.507 0.289 1 0.604 1.475 0.942 0.449 0.33 1.369 1.098 1.372 1.098 0.438 0.37 0.539 0.913 0.241 1.486 0 0.003-0.002 0.009-0.002 0.012-0.329 0.57-0.746 1.083-1.236 1.521-0.006 0.003-0.006 0.006-0.011 0.009-0.426 0.356-0.844 0.558-1.255 0.607-0.060 0.011-0.122 0.015-0.183 0.012-0.181 0.002-0.361-0.026-0.534-0.082l-0.013-0.020c-0.633-0.178-1.69-0.625-3.449-1.596-1.018-0.555-1.988-1.196-2.898-1.914-0.456-0.36-0.892-0.746-1.304-1.156l-0.044-0.044-0.044-0.044-0.044-0.044c-0.015-0.014-0.029-0.029-0.044-0.044-0.41-0.412-0.796-0.847-1.156-1.303-0.719-0.91-1.359-1.879-1.914-2.897-0.971-1.76-1.418-2.816-1.596-3.45l-0.020-0.013c-0.056-0.172-0.084-0.352-0.082-0.534-0.003-0.061 0-0.123 0.011-0.183 0.051-0.41 0.254-0.829 0.608-1.256 0.003-0.005 0.006-0.005 0.009-0.011 0.438-0.49 0.952-0.907 1.522-1.235 0.003 0 0.009-0.003 0.012-0.003 0.573-0.298 1.116-0.197 1.485 0.239 0.003 0.003 0.769 0.923 1.098 1.372 0.339 0.476 0.653 0.969 0.942 1.477 0.377 0.676 0.141 1.369-0.23 1.654l-0.747 0.594c-0.377 0.305-0.327 0.87-0.327 0.87s1.106 4.187 5.24 5.242z"></path>
</symbol>
</defs>
</svg>
