<svg width="23" height="22" viewBox="0 0 23 22" fill="none" xmlns="http://www.w3.org/2000/svg">
<g id="icn bxs-star">
<path id="Vector" d="M20.6719 8.41256C20.6142 8.24274 20.5081 8.09353 20.3666 7.98335C20.2251 7.87316 20.0545 7.80681 19.8757 7.79251L14.6465 7.377L12.3837 2.36798C12.3117 2.20665 12.1944 2.06963 12.0462 1.97344C11.898 1.87726 11.7251 1.82602 11.5484 1.82593C11.3717 1.82583 11.1988 1.87687 11.0505 1.9729C10.9021 2.06892 10.7848 2.20582 10.7125 2.36707L8.44971 7.377L3.22056 7.79251C3.04487 7.80642 2.87691 7.87066 2.73677 7.97754C2.59663 8.08442 2.49025 8.2294 2.43036 8.39516C2.37046 8.56091 2.35959 8.74041 2.39903 8.91218C2.43848 9.08395 2.52658 9.24072 2.65279 9.36373L6.5171 13.1308L5.15042 19.0488C5.10892 19.2279 5.12222 19.4154 5.1886 19.5869C5.25497 19.7584 5.37135 19.9059 5.52264 20.0105C5.67392 20.115 5.85313 20.1716 6.037 20.173C6.22088 20.1744 6.40093 20.1205 6.55379 20.0183L11.5481 16.6888L16.5425 20.0183C16.6987 20.1221 16.883 20.1755 17.0705 20.1713C17.258 20.1672 17.4397 20.1058 17.5912 19.9953C17.7428 19.8848 17.8568 19.7306 17.9181 19.5533C17.9794 19.3761 17.9849 19.1843 17.9339 19.0039L16.2563 13.1336L20.4169 9.38941C20.6893 9.14359 20.7893 8.76019 20.6719 8.41256Z" fill="#F3CD03"/>
</g>
</svg>
